HIERARCHY
ROOT hip
{
	OFFSET 0.000000 0.000000 0.000000
	CHANNELS 6 Xposition Yposition Zposition Xrotation Zrotation Yrotation 
	JOINT abdomen
	{
		OFFSET 0.000000 3.422050 0.000000
		CHANNELS 3 Xrotation Zrotation Yrotation 
		JOINT chest
		{
			OFFSET 0.000000 8.486693 -0.6844110
			CHANNELS 3 Xrotation Zrotation Yrotation 
			JOINT neck
			{
				OFFSET 0.000000 10.26616 -0.2737640
				CHANNELS 3 Xrotation Zrotation Yrotation 
				JOINT head
				{
					OFFSET 0.000000 3.148285 0.000000
					CHANNELS 3 Xrotation Zrotation Yrotation 
					End Site
					{
						OFFSET 0.000000 3.148289 0.000000
					}
				}
			}
			JOINT lCollar
			{
				OFFSET 3.422053 6.707223 -0.8212930
				CHANNELS 3 Yrotation Zrotation Xrotation 
				JOINT lShldr
				{
					OFFSET 3.285171 0.000000 0.000000
					CHANNELS 3 Zrotation Yrotation Xrotation 
					JOINT lForeArm
					{
						OFFSET 10.12928 0.000000 0.000000
						CHANNELS 3 Yrotation Zrotation Xrotation 
						JOINT lHand
						{
							OFFSET 8.486692 0.000000 0.000000
							CHANNELS 3 Zrotation Yrotation Xrotation 
							End Site
							{
								OFFSET 4.106464 0.000000 0.000000
							}
						}
					}
				}
			}
			JOINT rCollar
			{
				OFFSET -3.558935 6.707223 -0.8212930
				CHANNELS 3 Yrotation Zrotation Xrotation 
				JOINT rShldr
				{
					OFFSET -3.148289 0.000000 0.000000
					CHANNELS 3 Zrotation Yrotation Xrotation 
					JOINT rForeArm
					{
						OFFSET -10.26616 0.000000 0.000000
						CHANNELS 3 Yrotation Zrotation Xrotation 
						JOINT rHand
						{
							OFFSET -8.349810 0.000000 0.000000
							CHANNELS 3 Zrotation Yrotation Xrotation 
							End Site
							{
								OFFSET -4.106464 0.000000 0.000000
							}
						}
					}
				}
			}
		}
	}
	JOINT lThigh
	{
		OFFSET 5.338403 -1.642589 1.368821
		CHANNELS 3 Xrotation Zrotation Yrotation 
		JOINT lShin
		{
			OFFSET -2.053232 -20.12167 0.000000
			CHANNELS 3 Xrotation Zrotation Yrotation 
			JOINT lFoot
			{
				OFFSET 0.000000 -19.30038 -1.231939
				CHANNELS 3 Xrotation Yrotation Zrotation 
				End Site
				{
					OFFSET 0.000000 -2.463878 4.653993
				}
			}
		}
	}
	JOINT rThigh
	{
		OFFSET -5.338403 -1.642589 1.368821
		CHANNELS 3 Xrotation Zrotation Yrotation 
		JOINT rShin
		{
			OFFSET 2.053232 -20.12167 0.000000
			CHANNELS 3 Xrotation Zrotation Yrotation 
			JOINT rFoot
			{
				OFFSET 0.000000 -19.30038 -1.231939
				CHANNELS 3 Xrotation Yrotation Zrotation 
				End Site
				{
					OFFSET 0.000000 -2.463878 4.653993
				}
			}
		}
	}
}
MOTION
Frames:	9
Frame Time:	0.03333333
0.000000 41.00000 0.000000 0.000000 0.000000 0.000000 0.000000 0.000000 0.000000 0.000000 0.000000 0.000000 0.000000 0.000000 0.000000 0.000000 0.000000 0.000000 0.000000 0.000000 0.000000 -82.00000 0.000000 0.000000 0.000000 0.000000 0.000000 0.000000 0.000000 0.000000 0.000000 0.000000 0.000000 82.00000 0.000000 0.000000 0.000000 0.000000 0.000000 0.000000 0.000000 0.000000 0.000000 0.000000 20.00000 0.000000 0.000000 0.000000 0.000000 0.000000 0.000000 0.000000 0.000000 -20.00000 0.000000 0.000000 0.000000 0.000000 0.000000 0.000000 
0.000000 38.00000 0.000000 1.000000 0.000000 0.000000 0.000000 0.000000 16.00000 0.000000 0.000000 23.00000 1.000000 0.000000 0.000000 1.000000 0.000000 0.000000 0.000000 0.000000 1.000000 -82.00000 27.00000 0.000000 -89.00000 0.000000 -20.00000 0.000000 -20.00000 -60.00000 0.000000 0.000000 1.000000 82.00000 -27.00000 0.000000 89.00000 0.000000 -20.00000 0.000000 20.00000 -60.00000 -25.00000 8.000000 20.00000 50.00000 0.000000 0.000000 -25.00000 0.000000 0.000000 -20.00000 -8.000000 -20.00000 40.00000 0.000000 0.000000 -25.00000 0.000000 0.000000 
0.000000 38.00000 0.000000 1.000000 0.000000 0.000000 0.000000 0.000000 16.00000 0.000000 0.000000 23.00000 1.000000 0.000000 0.000000 1.000000 0.000000 0.000000 0.000000 0.000000 1.000000 -82.00000 24.25000 0.000000 -89.00000 0.000000 -18.57143 0.000000 -20.00000 -56.78571 0.000000 0.000000 1.000000 82.00000 -24.25000 0.000000 89.00000 0.000000 -18.57143 0.000000 20.00000 -56.78571 -24.96428 8.821428 20.00000 49.57143 0.000000 0.000000 -25.00000 0.000000 0.000000 -20.00000 -8.000000 -20.00000 40.00000 0.000000 0.000000 -25.00000 0.000000 0.000000 
0.000000 38.00000 0.000000 1.000000 0.000000 0.000000 0.000000 0.000000 16.00000 0.000000 0.000000 23.00000 1.000000 0.000000 0.000000 1.000000 0.000000 0.000000 0.000000 0.000000 1.000000 -82.00000 21.50000 0.000000 -89.00000 0.000000 -17.14286 0.000000 -20.00000 -53.57143 0.000000 0.000000 1.000000 82.00000 -21.50000 0.000000 89.00000 0.000000 -17.14286 0.000000 20.00000 -53.57143 -24.92857 9.642858 20.00000 49.14286 0.000000 0.000000 -25.00000 0.000000 0.000000 -20.00000 -8.000000 -20.00000 40.00000 0.000000 0.000000 -25.00000 0.000000 0.000000 
0.000000 38.00000 0.000000 1.000000 0.000000 0.000000 0.000000 0.000000 16.00000 0.000000 0.000000 23.00000 1.000000 0.000000 0.000000 1.000000 0.000000 0.000000 0.000000 0.000000 1.000000 -82.00000 18.75000 0.000000 -89.00000 0.000000 -15.71429 0.000000 -20.00000 -50.35714 0.000000 0.000000 1.000000 82.00000 -18.75000 0.000000 89.00000 0.000000 -15.71429 0.000000 20.00000 -50.35714 -24.89286 10.46429 20.00000 48.71429 0.000000 0.000000 -25.00000 0.000000 0.000000 -20.00000 -8.000000 -20.00000 40.00000 0.000000 0.000000 -25.00000 0.000000 0.000000 
0.000000 38.00000 0.000000 1.000000 0.000000 0.000000 0.000000 0.000000 16.00000 0.000000 0.000000 23.00000 1.000000 0.000000 0.000000 1.000000 0.000000 0.000000 0.000000 0.000000 1.000000 -82.00000 16.00000 0.000000 -89.00000 0.000000 -14.28571 0.000000 -20.00000 -47.14286 0.000000 0.000000 1.000000 82.00000 -16.00000 0.000000 89.00000 0.000000 -14.28571 0.000000 20.00000 -47.14286 -24.85714 11.28571 20.00000 48.28571 0.000000 0.000000 -25.00000 0.000000 0.000000 -20.00000 -8.000000 -20.00000 40.00000 0.000000 0.000000 -25.00000 0.000000 0.000000 
0.000000 38.00000 0.000000 1.000000 0.000000 0.000000 0.000000 0.000000 16.00000 0.000000 0.000000 23.00000 1.000000 0.000000 0.000000 1.000000 0.000000 0.000000 0.000000 0.000000 1.000000 -82.00000 13.25000 0.000000 -89.00000 0.000000 -12.85714 0.000000 -20.00000 -43.92857 0.000000 0.000000 1.000000 82.00000 -13.25000 0.000000 89.00000 0.000000 -12.85714 0.000000 20.00000 -43.92857 -24.82143 12.10714 20.00000 47.85714 0.000000 0.000000 -25.00000 0.000000 0.000000 -20.00000 -8.000000 -20.00000 40.00000 0.000000 0.000000 -25.00000 0.000000 0.000000 
0.000000 38.00000 0.000000 1.000000 0.000000 0.000000 0.000000 0.000000 16.00000 0.000000 0.000000 23.00000 1.000000 0.000000 0.000000 1.000000 0.000000 0.000000 0.000000 0.000000 1.000000 -82.00000 10.50000 0.000000 -89.00000 0.000000 -11.42857 0.000000 -20.00000 -40.71429 0.000000 0.000000 1.000000 82.00000 -10.50000 0.000000 89.00000 0.000000 -11.42857 0.000000 20.00000 -40.71429 -24.78572 12.92857 20.00000 47.42857 0.000000 0.000000 -25.00000 0.000000 0.000000 -20.00000 -8.000000 -20.00000 40.00000 0.000000 0.000000 -25.00000 0.000000 0.000000 
0.000000 38.00000 0.000000 1.000000 0.000000 0.000000 0.000000 0.000000 16.00000 0.000000 0.000000 23.00000 1.000000 0.000000 0.000000 1.000000 0.000000 0.000000 0.000000 0.000000 1.000000 -82.00000 7.750000 0.000000 -89.00000 0.000000 -10.00000 0.000000 -20.00000 -37.50000 0.000000 0.000000 1.000000 82.00000 -7.750000 0.000000 89.00000 0.000000 -10.00000 0.000000 20.00000 -37.50000 -24.75000 13.75000 20.00000 47.00000 0.000000 0.000000 -25.00000 0.000000 0.000000 -20.00000 -8.000000 -20.00000 40.00000 0.000000 0.000000 -25.00000 0.000000 0.000000 
